<?xml version="1.0" standalone="no"?>
<!DOCTYPE svg PUBLIC "-//W3C//DTD SVG 20010904//EN"
 "http://www.w3.org/TR/2001/REC-SVG-20010904/DTD/svg10.dtd">
<svg version="1.0" xmlns="http://www.w3.org/2000/svg"
 width="48.000000pt" height="48.000000pt" viewBox="0 0 48.000000 48.000000"
 preserveAspectRatio="xMidYMid meet">

<g transform="translate(0.000000,48.000000) scale(0.100000,-0.100000)"
fill="#000000" stroke="none">
<path d="M72 238 l3 -163 165 0 165 0 3 163 2 162 -170 0 -170 0 2 -162z m298
-3 l0 -135 -130 0 -130 0 0 135 0 135 130 0 130 0 0 -135z"/>
<path d="M152 328 c-20 -20 -14 -53 18 -96 57 -79 137 -113 164 -69 24 38 -30
73 -64 42 -18 -17 -21 -16 -51 14 -29 30 -30 33 -15 50 27 30 14 71 -24 71 -9
0 -21 -5 -28 -12z"/>
</g>
</svg>
