<?xml version="1.0" standalone="no"?>
<!DOCTYPE svg PUBLIC "-//W3C//DTD SVG 20010904//EN"
 "http://www.w3.org/TR/2001/REC-SVG-20010904/DTD/svg10.dtd">
<svg version="1.0" xmlns="http://www.w3.org/2000/svg"
 width="512.000000pt" height="512.000000pt" viewBox="0 0 512.000000 512.000000"
 preserveAspectRatio="xMidYMid meet">

<g transform="translate(0.000000,512.000000) scale(0.100000,-0.100000)"
fill="#000000" stroke="none">
<path d="M2695 4626 c-79 -35 -116 -128 -81 -209 8 -18 357 -382 829 -862
l815 -830 -1918 -5 c-1918 -5 -1919 -5 -1946 -26 -53 -39 -69 -71 -69 -134 0
-63 16 -95 69 -134 l27 -21 2139 0 2139 0 27 21 c66 49 90 126 61 194 -17 40
-1899 1962 -1956 1997 -40 26 -91 29 -136 9z"/>
<path d="M3954 2066 c-44 -20 -1323 -1322 -1342 -1366 -55 -133 90 -269 214
-198 57 32 1313 1312 1332 1357 39 96 -27 208 -129 217 -25 3 -57 -2 -75 -10z"/>
</g>
</svg>
