<?xml version="1.0" standalone="no"?>
<!DOCTYPE svg PUBLIC "-//W3C//DTD SVG 20010904//EN"
 "http://www.w3.org/TR/2001/REC-SVG-20010904/DTD/svg10.dtd">
<svg version="1.0" xmlns="http://www.w3.org/2000/svg"
 width="512.000000pt" height="512.000000pt" viewBox="0 0 512.000000 512.000000"
 preserveAspectRatio="xMidYMid meet">

<g transform="translate(0.000000,512.000000) scale(0.100000,-0.100000)"
fill="#000000" stroke="none">
<path d="M457 4496 c-55 -20 -103 -61 -134 -114 -24 -41 -28 -57 -28 -127 0
-89 13 -122 69 -178 58 -59 97 -71 236 -77 l124 -5 202 -935 c112 -514 210
-963 219 -998 57 -209 197 -379 390 -472 188 -90 106 -85 1310 -85 976 0 1065
1 1128 17 159 41 314 132 413 242 116 129 167 281 263 791 28 149 74 378 101
510 76 359 83 402 78 485 -7 120 -54 189 -153 226 -48 18 -107 19 -1365 22
-1362 3 -1402 2 -1480 -38 -44 -22 -97 -80 -116 -126 -20 -48 -17 -151 5 -199
24 -53 75 -103 131 -129 45 -21 52 -21 1233 -24 1122 -2 1188 -3 1183 -20 -3
-9 -50 -255 -106 -547 -64 -336 -108 -545 -121 -572 -23 -47 -60 -83 -123
-116 l-41 -22 -999 -3 c-1097 -3 -1058 -5 -1143 57 -83 60 -76 35 -304 1088
-115 532 -214 984 -220 1003 -53 165 -196 301 -364 345 -77 20 -333 20 -388 1z"/>
<path d="M1630 1369 c-80 -14 -154 -55 -215 -121 -73 -78 -99 -146 -99 -259 0
-80 3 -93 37 -162 43 -86 98 -141 186 -184 50 -25 67 -28 156 -28 93 0 105 2
167 33 83 40 158 119 189 200 35 86 33 216 -3 295 -78 168 -240 255 -418 226z"/>
<path d="M3936 1370 c-121 -21 -231 -106 -285 -220 -23 -48 -26 -68 -26 -160
0 -94 3 -111 27 -161 38 -76 109 -146 188 -183 58 -28 75 -31 160 -31 85 0
102 3 160 31 79 37 150 107 188 183 24 50 27 67 27 161 0 88 -4 113 -23 154
-74 162 -245 254 -416 226z"/>
</g>
</svg>
