<?xml version="1.0" standalone="no"?>
<!DOCTYPE svg PUBLIC "-//W3C//DTD SVG 20010904//EN"
 "http://www.w3.org/TR/2001/REC-SVG-20010904/DTD/svg10.dtd">
<svg version="1.0" xmlns="http://www.w3.org/2000/svg"
 width="128.000000pt" height="128.000000pt" viewBox="0 0 128.000000 128.000000"
 preserveAspectRatio="xMidYMid meet">

<g transform="translate(0.000000,128.000000) scale(0.100000,-0.100000)"
fill="#000000" stroke="none">
<path d="M761 1145 c-81 -25 -150 -116 -151 -197 l0 -38 -136 0 c-156 0 -198
-10 -253 -57 -77 -66 -81 -83 -81 -391 l0 -272 -48 0 c-59 0 -92 -20 -76 -47
11 -17 44 -18 624 -18 580 0 613 1 624 18 16 27 -17 47 -76 47 l-48 0 0 479
c0 427 -2 480 -16 485 -31 12 -318 5 -363 -9z m319 -505 l0 -450 -60 0 -60 0
0 79 c0 97 -10 111 -80 111 -80 0 -80 0 -80 -101 l0 -89 -65 0 -65 0 0 384 c0
248 4 395 11 413 12 33 56 82 84 93 11 5 86 9 168 9 l147 1 0 -450z m-470
-120 l0 -330 -205 0 -205 0 0 260 c0 291 3 308 64 356 49 39 61 42 214 43
l132 1 0 -330z m280 -270 c0 -47 -3 -60 -15 -60 -12 0 -15 13 -15 60 0 47 3
60 15 60 12 0 15 -13 15 -60z"/>
<path d="M715 909 c-4 -11 -3 -25 2 -30 5 -5 78 -8 164 -7 l154 3 0 25 0 25
-157 3 c-152 2 -157 2 -163 -19z"/>
<path d="M722 748 c-18 -18 -15 -36 7 -48 31 -16 273 -13 297 4 15 12 17 18 8
33 -10 16 -29 18 -155 21 -104 2 -148 -1 -157 -10z"/>
<path d="M714 565 c-4 -8 -1 -22 6 -30 18 -22 292 -22 310 0 7 8 10 22 6 30
-8 22 -314 22 -322 0z"/>
<path d="M246 725 c-3 -9 -6 -41 -6 -70 0 -62 13 -75 77 -75 63 0 75 15 71 90
l-3 65 -66 3 c-54 2 -68 0 -73 -13z m84 -60 c0 -8 -7 -15 -15 -15 -8 0 -15 7
-15 15 0 8 7 15 15 15 8 0 15 -7 15 -15z"/>
<path d="M427 733 c-4 -3 -7 -35 -7 -69 0 -52 3 -65 19 -74 30 -15 97 -12 115
6 19 19 22 114 4 132 -13 13 -120 17 -131 5z m73 -68 c0 -8 -4 -15 -10 -15 -5
0 -10 7 -10 15 0 8 5 15 10 15 6 0 10 -7 10 -15z"/>
<path d="M252 538 c-16 -16 -16 -120 0 -136 12 -12 95 -16 122 -6 23 9 23 139
0 148 -27 10 -110 6 -122 -6z m78 -68 c0 -11 -4 -20 -9 -20 -14 0 -23 18 -16
30 10 17 25 11 25 -10z"/>
<path d="M424 536 c-3 -7 -4 -42 -2 -77 l3 -64 58 -3 c35 -2 64 2 73 9 18 14
19 120 2 137 -17 17 -127 16 -134 -2z m76 -66 c0 -11 -4 -20 -10 -20 -5 0 -10
9 -10 20 0 11 5 20 10 20 6 0 10 -9 10 -20z"/>
</g>
</svg>
