<?xml version="1.0" standalone="no"?>
<!DOCTYPE svg PUBLIC "-//W3C//DTD SVG 20010904//EN"
 "http://www.w3.org/TR/2001/REC-SVG-20010904/DTD/svg10.dtd">
<svg version="1.0" xmlns="http://www.w3.org/2000/svg"
 width="128.000000pt" height="128.000000pt" viewBox="0 0 128.000000 128.000000"
 preserveAspectRatio="xMidYMid meet">

<g transform="translate(0.000000,128.000000) scale(0.100000,-0.100000)"
fill="#000000" stroke="none">
<path d="M390 1215 c-11 -13 -9 -20 14 -44 l26 -27 -61 -12 c-151 -28 -229
-132 -229 -307 0 -68 7 -85 35 -85 30 0 35 16 35 108 0 133 60 209 172 220
l52 5 -26 -32 c-30 -35 -27 -61 7 -61 14 0 42 21 78 59 32 33 57 62 57 66 0
15 -115 125 -130 125 -10 0 -23 -7 -30 -15z"/>
<path d="M729 1157 c-107 -31 -202 -115 -239 -215 -25 -67 -23 -87 10 -87 21
0 28 8 44 53 24 68 83 134 148 166 71 35 171 36 243 2 62 -28 126 -97 150
-159 26 -68 17 -179 -19 -241 -34 -58 -91 -106 -158 -131 -44 -17 -53 -25 -53
-45 0 -33 20 -35 88 -10 78 29 149 96 189 178 29 59 33 76 33 147 -1 66 -6 91
-29 141 -70 154 -253 244 -407 201z"/>
<path d="M400 809 c-111 -22 -208 -99 -258 -207 -38 -82 -38 -192 2 -278 35
-77 103 -145 181 -181 50 -23 74 -27 140 -28 71 0 88 4 147 33 169 83 243 271
177 447 -56 148 -231 245 -389 214z m192 -88 c205 -104 211 -390 11 -508 -66
-38 -178 -44 -251 -13 -63 27 -132 99 -157 163 -26 68 -17 179 18 240 33 56
97 111 151 131 61 23 169 16 228 -13z"/>
<path d="M270 632 c0 -11 121 -128 147 -141 28 -14 68 -14 96 0 32 16 137 121
137 136 0 8 -13 13 -32 13 -25 0 -43 -11 -78 -44 -68 -66 -80 -67 -143 -7 -45
42 -60 51 -90 51 -21 0 -37 -4 -37 -8z"/>
<path d="M415 436 c-16 -7 -57 -42 -90 -77 l-60 -64 39 -3 c35 -3 44 2 85 42
63 62 91 62 151 1 35 -35 51 -45 77 -45 18 0 33 4 33 8 0 18 -106 126 -137
138 -40 17 -59 17 -98 0z"/>
<path d="M1076 524 c-3 -9 -6 -50 -6 -92 0 -133 -60 -209 -172 -220 l-52 -5
26 32 c30 35 27 61 -7 61 -14 0 -42 -21 -78 -59 -32 -33 -57 -62 -57 -66 0
-15 115 -125 130 -125 10 0 23 7 30 15 11 13 9 20 -14 44 l-26 27 61 12 c151
28 229 132 229 307 0 29 -3 60 -6 69 -8 21 -50 21 -58 0z"/>
</g>
</svg>
