<?xml version="1.0" standalone="no"?>
<!DOCTYPE svg PUBLIC "-//W3C//DTD SVG 20010904//EN"
 "http://www.w3.org/TR/2001/REC-SVG-20010904/DTD/svg10.dtd">
<svg version="1.0" xmlns="http://www.w3.org/2000/svg"
 width="48.000000pt" height="48.000000pt" viewBox="0 0 48.000000 48.000000"
 preserveAspectRatio="xMidYMid meet">

<g transform="translate(0.000000,48.000000) scale(0.100000,-0.100000)"
fill="#000000" stroke="none">
<path d="M0 240 l0 -180 240 0 240 0 0 180 0 180 -240 0 -240 0 0 -180z m344
68 c-43 -46 -85 -87 -93 -92 -10 -6 -39 17 -105 83 l-91 91 184 0 184 0 -79
-82z m-252 -130 l-62 -63 0 125 0 125 62 -63 63 -62 -63 -62z m358 60 l0 -123
-62 62 -63 63 60 60 c33 33 61 60 62 60 2 0 3 -55 3 -122z m-250 -43 c17 -20
59 -19 82 2 18 16 22 14 81 -45 l62 -62 -185 0 -184 0 59 60 c33 33 62 60 66
60 4 0 12 -7 19 -15z"/>
</g>
</svg>
