<?xml version="1.0" standalone="no"?>
<!DOCTYPE svg PUBLIC "-//W3C//DTD SVG 20010904//EN"
 "http://www.w3.org/TR/2001/REC-SVG-20010904/DTD/svg10.dtd">
<svg version="1.0" xmlns="http://www.w3.org/2000/svg"
 width="48.000000pt" height="48.000000pt" viewBox="0 0 48.000000 48.000000"
 preserveAspectRatio="xMidYMid meet">

<g transform="translate(0.000000,48.000000) scale(0.100000,-0.100000)"
fill="#000000" stroke="none">
<path d="M18 413 c-2 -5 -2 -86 0 -181 l3 -172 219 0 219 0 3 173 c2 94 2 175
0 180 -4 9 -440 9 -444 0z m337 -69 c-27 -25 -65 -57 -82 -71 l-33 -25 -32 25
c-18 14 -55 46 -83 71 l-50 45 165 0 165 0 -50 -45z m-219 -49 c48 -41 95 -75
104 -75 10 0 57 34 106 76 l89 76 3 -107 c1 -59 1 -110 -2 -112 -2 -3 -28 11
-57 31 -34 23 -57 32 -63 26 -5 -5 -8 -11 -5 -13 2 -2 32 -23 67 -46 34 -23
62 -46 62 -51 0 -6 -78 -10 -200 -10 -122 0 -200 4 -200 10 0 5 28 28 63 51
34 23 64 44 66 46 3 2 0 8 -5 13 -6 6 -28 -3 -61 -25 -29 -19 -55 -35 -58 -35
-3 0 -5 50 -5 110 0 61 2 110 4 110 3 0 44 -34 92 -75z"/>
</g>
</svg>
