<?xml version="1.0" standalone="no"?>
<!DOCTYPE svg PUBLIC "-//W3C//DTD SVG 20010904//EN"
 "http://www.w3.org/TR/2001/REC-SVG-20010904/DTD/svg10.dtd">
<svg version="1.0" xmlns="http://www.w3.org/2000/svg"
 width="128.000000pt" height="128.000000pt" viewBox="0 0 128.000000 128.000000"
 preserveAspectRatio="xMidYMid meet">

<g transform="translate(0.000000,128.000000) scale(0.100000,-0.100000)"
fill="#000000" stroke="none">
<path d="M676 1055 c-85 -30 -132 -107 -143 -237 l-6 -67 -76 -3 -76 -3 -3
-77 -3 -78 80 0 81 0 2 -187 3 -188 77 -3 78 -3 2 188 3 188 78 3 77 3 0 79 0
80 -80 0 -80 0 0 60 c0 47 4 64 20 80 16 16 33 20 80 20 l60 0 0 80 0 80 -67
0 c-38 -1 -85 -7 -107 -15z"/>
</g>
</svg>
