<?xml version="1.0" standalone="no"?>
<!DOCTYPE svg PUBLIC "-//W3C//DTD SVG 20010904//EN"
 "http://www.w3.org/TR/2001/REC-SVG-20010904/DTD/svg10.dtd">
<svg version="1.0" xmlns="http://www.w3.org/2000/svg"
 width="48.000000pt" height="48.000000pt" viewBox="0 0 48.000000 48.000000"
 preserveAspectRatio="xMidYMid meet">

<g transform="translate(0.000000,48.000000) scale(0.100000,-0.100000)"
fill="#000000" stroke="none">
<path d="M182 345 c-21 -9 -38 -27 -48 -50 -13 -31 -13 -39 1 -70 19 -47 69
-70 115 -54 28 10 34 9 61 -17 38 -36 51 -23 15 15 -26 27 -27 33 -17 61 16
46 -7 96 -53 115 -41 18 -33 18 -74 0z m83 -40 c14 -13 25 -33 25 -45 0 -27
-43 -70 -70 -70 -27 0 -70 43 -70 70 0 12 11 32 25 45 13 14 34 25 45 25 12 0
32 -11 45 -25z"/>
</g>
</svg>
