<?xml version="1.0" standalone="no"?>
<!DOCTYPE svg PUBLIC "-//W3C//DTD SVG 20010904//EN"
 "http://www.w3.org/TR/2001/REC-SVG-20010904/DTD/svg10.dtd">
<svg version="1.0" xmlns="http://www.w3.org/2000/svg"
 width="128.000000pt" height="128.000000pt" viewBox="0 0 128.000000 128.000000"
 preserveAspectRatio="xMidYMid meet">

<g transform="translate(0.000000,128.000000) scale(0.100000,-0.100000)"
fill="#000000" stroke="none">
<path d="M317 1180 c-59 -15 -108 -45 -154 -92 -139 -143 -115 -377 49 -483
l47 -30 0 -92 1 -93 39 0 38 0 6 -69 c7 -82 33 -138 84 -180 53 -43 113 -54
293 -49 138 3 160 6 198 26 49 26 99 90 108 138 4 24 12 34 28 36 19 3 21 10
24 68 3 63 4 66 43 93 90 62 113 196 52 295 -53 87 -176 126 -271 87 -91 -39
-152 -144 -138 -240 8 -53 55 -127 95 -151 28 -17 30 -22 33 -83 3 -60 5 -66
26 -69 28 -4 28 -11 -1 -53 -32 -47 -71 -58 -222 -58 -152 -1 -194 8 -229 50
-22 26 -26 40 -26 95 l0 64 40 0 40 0 1 93 0 92 47 30 c167 107 189 346 44
488 -26 25 -68 55 -94 67 -54 24 -148 33 -201 20z m134 -111 c84 -26 149 -113
149 -200 0 -63 -40 -139 -92 -175 -37 -26 -50 -29 -118 -29 -68 0 -81 3 -118
29 -112 77 -121 250 -18 332 63 51 125 64 197 43z m611 -315 c39 -20 68 -74
68 -126 0 -152 -204 -202 -272 -67 -10 19 -18 50 -18 69 0 36 30 95 59 117 42
33 107 36 163 7z"/>
</g>
</svg>
