<?xml version="1.0" standalone="no"?>
<!DOCTYPE svg PUBLIC "-//W3C//DTD SVG 20010904//EN"
 "http://www.w3.org/TR/2001/REC-SVG-20010904/DTD/svg10.dtd">
<svg version="1.0" xmlns="http://www.w3.org/2000/svg"
 width="128.000000pt" height="128.000000pt" viewBox="0 0 128.000000 128.000000"
 preserveAspectRatio="xMidYMid meet">

<g transform="translate(0.000000,128.000000) scale(0.100000,-0.100000)"
fill="#000000" stroke="none">
<path d="M484 1031 c-57 -14 -124 -52 -179 -103 -58 -53 -75 -89 -55 -113 23
-28 60 -17 106 31 50 51 133 94 182 94 l34 0 -72 -79 c-76 -85 -94 -123 -80
-173 27 -93 135 -124 210 -61 21 17 34 22 43 16 6 -5 62 -49 122 -98 61 -49
112 -90 113 -91 8 -5 -10 -40 -33 -67 l-25 -28 -29 20 -29 21 -22 -30 c-23
-33 -50 -39 -70 -14 -30 35 -50 37 -81 8 -50 -47 -75 -39 -182 59 l-95 87 -76
0 -76 0 0 190 0 190 -95 0 -95 0 0 -255 0 -255 73 0 c47 1 79 6 91 15 13 10
43 15 83 15 l63 0 77 -71 c93 -85 129 -103 192 -95 59 8 86 8 137 0 27 -4 50
-1 65 7 13 7 44 13 68 14 40 0 48 5 92 54 61 68 75 101 63 149 -7 30 -30 54
-134 139 -69 56 -124 108 -123 115 1 7 5 25 9 39 6 28 -16 59 -43 59 -8 0 -45
-29 -82 -65 -67 -65 -103 -80 -115 -49 -3 9 -6 18 -6 21 0 3 46 52 102 109 85
87 107 104 132 104 47 0 126 -42 178 -93 45 -46 48 -47 107 -47 l61 0 0 -187
c0 -104 4 -193 8 -199 15 -23 53 -34 116 -34 l66 0 0 254 0 253 -137 7 -137 7
-44 40 c-86 80 -199 114 -278 84 -41 -16 -48 -16 -85 -1 -42 17 -65 18 -115 7z
m-365 -535 c16 -20 3 -46 -24 -46 -27 0 -36 17 -23 43 10 20 31 22 47 3z
m1089 -3 c13 -26 4 -43 -23 -43 -27 0 -40 26 -24 46 16 19 37 17 47 -3z"/>
</g>
</svg>
