<?xml version="1.0" standalone="no"?>
<!DOCTYPE svg PUBLIC "-//W3C//DTD SVG 20010904//EN"
 "http://www.w3.org/TR/2001/REC-SVG-20010904/DTD/svg10.dtd">
<svg version="1.0" xmlns="http://www.w3.org/2000/svg"
 width="512.000000pt" height="512.000000pt" viewBox="0 0 512.000000 512.000000"
 preserveAspectRatio="xMidYMid meet">

<g transform="translate(0.000000,512.000000) scale(0.100000,-0.100000)"
fill="#000000" stroke="none">
<path d="M244 4416 c-93 -23 -175 -92 -216 -181 -18 -41 -23 -72 -26 -173 -4
-117 -3 -125 23 -178 43 -88 57 -94 464 -196 l360 -91 3 -846 3 -846 26 -55
c37 -80 81 -125 157 -162 l67 -33 1950 -3 c1397 -2 1961 0 1988 8 41 12 77 57
77 98 0 69 -59 112 -154 112 l-55 0 -3 513 -3 512 -26 55 c-49 104 -113 159
-218 186 -50 12 -159 14 -743 11 -375 -1 -693 -6 -704 -11 -19 -7 -26 0 -55
54 -35 67 -78 107 -149 142 l-45 23 -610 0 c-576 0 -613 -1 -659 -19 -95 -36
-174 -131 -195 -234 -7 -35 -11 -253 -11 -642 l0 -590 -181 0 -181 0 -29 29
-29 29 0 1141 c0 803 -3 1155 -11 1192 -16 74 -84 142 -158 158 -73 15 -590
13 -657 -3z m606 -401 c0 -107 -3 -195 -7 -195 -5 0 -147 36 -318 78 l-310 78
0 88 c0 86 0 88 33 117 l32 29 285 0 285 0 0 -195z m2075 -881 c64 -30 63 -16
57 -671 l-5 -593 -633 0 -634 0 0 604 c0 601 0 603 21 630 12 15 31 32 43 36
11 5 268 9 569 9 480 1 553 -1 582 -15z m1736 -233 l29 -29 0 -501 0 -501
-745 0 -745 0 0 493 c1 527 1 525 51 553 19 11 158 13 702 14 l679 0 29 -29z"/>
<path d="M2379 2261 c-47 -48 -37 -130 21 -164 41 -25 279 -25 320 0 58 34 68
116 21 164 l-29 29 -152 0 -152 0 -29 -29z"/>
<path d="M4097 2270 c-38 -30 -52 -80 -33 -123 24 -59 56 -69 216 -65 130 3
140 4 164 27 51 48 40 142 -20 170 -15 6 -83 11 -163 11 -124 0 -141 -2 -164
-20z"/>
<path d="M2589 4417 c-104 -29 -183 -99 -220 -197 -17 -45 -19 -79 -19 -314 0
-249 1 -265 20 -289 30 -38 80 -52 123 -33 63 26 67 46 67 310 0 161 4 243 12
261 25 55 19 55 627 55 377 0 568 -4 584 -11 51 -23 52 -28 57 -416 l5 -361
24 -26 c48 -51 142 -40 170 20 7 17 11 142 11 389 0 343 -1 367 -21 419 -26
70 -92 139 -167 174 l-57 27 -585 2 c-443 2 -596 -1 -631 -10z"/>
<path d="M1207 1540 c-222 -39 -383 -262 -348 -481 38 -233 257 -396 482 -360
282 46 442 341 324 598 -79 174 -271 276 -458 243z m187 -240 c20 -14 49 -43
64 -64 24 -35 27 -49 27 -116 0 -67 -3 -81 -27 -116 -15 -21 -44 -50 -65 -64
-31 -21 -48 -25 -113 -25 -65 0 -82 4 -113 25 -21 14 -50 43 -65 64 -24 35
-27 49 -27 117 0 70 3 81 30 120 45 64 104 91 186 87 50 -3 75 -10 103 -28z"/>
<path d="M4604 1535 c-82 -18 -137 -47 -201 -107 -90 -86 -133 -185 -133 -308
0 -124 43 -222 135 -309 168 -159 422 -155 588 10 168 168 168 430 0 598 -65
64 -139 104 -227 120 -72 13 -84 13 -162 -4z m174 -220 c78 -33 126 -106 126
-195 1 -181 -214 -277 -351 -157 -115 101 -89 276 52 350 39 21 125 21 173 2z"/>
</g>
</svg>
