<?xml version="1.0" standalone="no"?>
<!DOCTYPE svg PUBLIC "-//W3C//DTD SVG 20010904//EN"
 "http://www.w3.org/TR/2001/REC-SVG-20010904/DTD/svg10.dtd">
<svg version="1.0" xmlns="http://www.w3.org/2000/svg"
 width="48.000000pt" height="48.000000pt" viewBox="0 0 48.000000 48.000000"
 preserveAspectRatio="xMidYMid meet">

<g transform="translate(0.000000,48.000000) scale(0.100000,-0.100000)"
fill="#000000" stroke="none">
<path d="M177 444 c-97 -34 -147 -104 -147 -206 0 -58 4 -72 33 -114 87 -130
267 -130 355 0 28 43 32 56 32 116 0 60 -4 73 -32 116 -55 81 -157 118 -241
88z m-7 -71 c-16 -44 -21 -48 -54 -51 -40 -4 -44 3 -18 35 13 16 78 63 89 63
0 0 -7 -21 -17 -47z m103 12 c27 -58 24 -65 -33 -65 -57 0 -60 7 -33 65 21 45
45 45 66 0z m103 -22 c33 -36 30 -45 -12 -41 -33 3 -38 7 -54 50 l-18 47 30
-15 c17 -9 41 -27 54 -41z m-226 -129 l0 -55 -42 3 -43 3 -3 53 -3 52 45 0 46
0 0 -56z m150 1 l0 -55 -60 0 -60 0 0 55 0 55 60 0 60 0 0 -55z m118 3 l-3
-53 -42 -3 -43 -3 0 55 0 56 46 0 45 0 -3 -52z m-247 -133 l16 -45 -38 22
c-22 12 -46 32 -54 45 -15 23 -15 23 22 23 36 0 39 -2 54 -45z m119 35 c0 -23
-35 -80 -50 -80 -15 0 -50 57 -50 80 0 6 23 10 50 10 28 0 50 -4 50 -10z m95
-13 c-8 -13 -32 -33 -54 -45 l-38 -22 16 45 c15 43 18 45 54 45 37 0 37 0 22
-23z"/>
</g>
</svg>
