<?xml version="1.0" standalone="no"?>
<!DOCTYPE svg PUBLIC "-//W3C//DTD SVG 20010904//EN"
 "http://www.w3.org/TR/2001/REC-SVG-20010904/DTD/svg10.dtd">
<svg version="1.0" xmlns="http://www.w3.org/2000/svg"
 width="48.000000pt" height="48.000000pt" viewBox="0 0 48.000000 48.000000"
 preserveAspectRatio="xMidYMid meet">

<g transform="translate(0.000000,48.000000) scale(0.100000,-0.100000)"
fill="#000000" stroke="none">
<path d="M112 307 l-62 -63 63 -62 c35 -34 66 -59 70 -55 4 4 -14 28 -40 55
l-47 48 151 0 c91 0 154 4 158 10 4 7 -48 10 -149 10 -86 0 -156 3 -156 7 0 4
21 28 46 54 25 26 42 49 37 52 -5 3 -37 -22 -71 -56z"/>
</g>
</svg>
