<?xml version="1.0" standalone="no"?>
<!DOCTYPE svg PUBLIC "-//W3C//DTD SVG 20010904//EN"
 "http://www.w3.org/TR/2001/REC-SVG-20010904/DTD/svg10.dtd">
<svg version="1.0" xmlns="http://www.w3.org/2000/svg"
 width="512.000000pt" height="512.000000pt" viewBox="0 0 512.000000 512.000000"
 preserveAspectRatio="xMidYMid meet">

<g transform="translate(0.000000,512.000000) scale(0.100000,-0.100000)"
fill="#000000" stroke="none">
<path d="M805 4551 c-90 -22 -172 -90 -215 -176 l-25 -50 0 -1765 0 -1765 25
-50 c31 -64 91 -124 155 -155 l50 -25 1765 0 1765 0 50 24 c63 32 124 93 156
156 l24 50 0 1765 0 1765 -24 50 c-32 63 -93 124 -156 156 l-50 24 -1745 2
c-960 0 -1758 -2 -1775 -6z m3477 -268 c17 -15 18 -82 18 -1721 0 -1573 -1
-1707 -17 -1724 -15 -17 -82 -18 -1721 -18 -1573 0 -1707 1 -1724 17 -17 15
-18 82 -18 1721 0 1573 1 1707 17 1724 15 17 82 18 1721 18 1573 0 1707 -1
1724 -17z"/>
<path d="M1635 3666 c-88 -38 -139 -117 -140 -216 0 -53 5 -73 28 -112 44 -76
115 -118 200 -118 135 0 231 95 231 230 0 99 -50 179 -136 214 -45 19 -142 20
-183 2z"/>
<path d="M1490 2270 l0 -830 235 0 235 0 0 830 0 830 -235 0 -235 0 0 -830z"/>
<path d="M2200 2270 l0 -830 240 0 240 0 0 498 c0 319 4 511 11 535 27 98 124
153 255 145 97 -6 141 -35 181 -115 l28 -58 3 -507 3 -508 235 0 235 0 -3 603
c-4 578 -5 605 -25 678 -59 210 -171 326 -363 375 -80 20 -278 15 -357 -10
-79 -25 -144 -75 -175 -136 l-28 -52 0 106 0 106 -240 0 -240 0 0 -830z"/>
</g>
</svg>
