<?xml version="1.0" standalone="no"?>
<!DOCTYPE svg PUBLIC "-//W3C//DTD SVG 20010904//EN"
 "http://www.w3.org/TR/2001/REC-SVG-20010904/DTD/svg10.dtd">
<svg version="1.0" xmlns="http://www.w3.org/2000/svg"
 width="128.000000pt" height="128.000000pt" viewBox="0 0 128.000000 128.000000"
 preserveAspectRatio="xMidYMid meet">

<g transform="translate(0.000000,128.000000) scale(0.100000,-0.100000)"
fill="#000000" stroke="none">
<path d="M215 1226 c-101 -44 -125 -178 -46 -257 65 -65 157 -65 222 0 124
124 -15 327 -176 257z m120 -91 c50 -49 15 -135 -55 -135 -41 0 -80 39 -80 80
0 41 39 80 80 80 19 0 40 -9 55 -25z"/>
<path d="M935 1226 c-101 -44 -125 -178 -46 -257 65 -65 157 -65 222 0 124
124 -15 327 -176 257z m120 -91 c16 -15 25 -36 25 -55 0 -19 -9 -40 -25 -55
-15 -16 -36 -25 -55 -25 -19 0 -40 9 -55 25 -16 15 -25 36 -25 55 0 19 9 40
25 55 15 16 36 25 55 25 19 0 40 -9 55 -25z"/>
<path d="M672 940 c-68 -42 -91 -124 -52 -188 41 -66 113 -88 179 -54 101 51
106 183 9 242 -18 11 -49 20 -68 20 -19 0 -50 -9 -68 -20z m108 -80 c11 -11
20 -29 20 -40 0 -11 -9 -29 -20 -40 -11 -11 -29 -20 -40 -20 -11 0 -29 9 -40
20 -11 11 -20 29 -20 40 0 11 9 29 20 40 11 11 29 20 40 20 11 0 29 -9 40 -20z"/>
<path d="M115 870 c-11 -4 -31 -20 -45 -35 -24 -26 -25 -32 -28 -181 -4 -170
3 -197 53 -210 l25 -6 0 -155 c0 -150 1 -155 25 -178 23 -24 31 -25 135 -25
104 0 112 1 135 25 24 24 25 28 25 180 l0 155 -40 0 -40 0 0 -140 0 -140 -80
0 -80 0 0 180 0 180 -40 0 -40 0 0 129 c0 97 3 131 14 140 9 8 57 11 147 9
l132 -3 40 -117 39 -118 182 0 c128 0 186 -4 194 -12 8 -8 12 -45 12 -100 l0
-88 -40 0 -40 0 0 -100 0 -100 -60 0 -60 0 0 100 0 100 -40 0 -40 0 0 -115 c0
-110 1 -117 25 -140 22 -23 32 -25 115 -25 83 0 93 2 115 25 22 21 25 33 25
98 0 71 1 75 25 81 47 12 57 43 53 170 -3 115 -3 116 -36 148 l-32 33 -172 5
-171 5 -34 100 c-19 59 -42 107 -54 118 -18 15 -43 17 -173 16 -83 0 -160 -4
-171 -9z"/>
<path d="M960 841 l0 -41 88 0 c55 0 92 -4 100 -12 8 -8 12 -54 12 -140 l0
-128 -60 0 -60 0 0 -220 0 -220 40 0 40 0 0 180 0 180 35 0 c25 0 44 8 61 25
25 25 25 26 22 185 l-3 160 -33 32 c-32 32 -34 33 -137 36 l-105 4 0 -41z"/>
</g>
</svg>
