<?xml version="1.0" standalone="no"?>
<!DOCTYPE svg PUBLIC "-//W3C//DTD SVG 20010904//EN"
 "http://www.w3.org/TR/2001/REC-SVG-20010904/DTD/svg10.dtd">
<svg version="1.0" xmlns="http://www.w3.org/2000/svg"
 width="128.000000pt" height="128.000000pt" viewBox="0 0 128.000000 128.000000"
 preserveAspectRatio="xMidYMid meet">

<g transform="translate(0.000000,128.000000) scale(0.100000,-0.100000)"
fill="#000000" stroke="none">
<path d="M932 1190 l-82 -91 0 -97 c0 -96 -1 -99 -29 -126 l-30 -29 -47 32
c-143 95 -330 104 -486 25 -75 -38 -172 -139 -208 -216 -72 -155 -62 -326 29
-469 l28 -45 -38 -48 c-42 -52 -49 -85 -23 -110 31 -32 73 -11 121 61 l15 22
61 -34 c162 -89 344 -84 499 14 l46 29 42 -49 c48 -56 81 -70 110 -44 30 27
25 49 -28 112 l-49 58 33 60 c58 106 78 228 53 335 -11 51 -58 160 -68 160 -4
0 -29 -22 -56 -50 l-48 -49 16 -52 c21 -64 22 -161 2 -220 -51 -149 -221 -249
-374 -220 -237 47 -352 315 -219 515 38 58 105 110 172 132 71 24 185 15 254
-20 28 -14 52 -30 52 -34 0 -5 -11 -19 -25 -32 l-24 -23 -50 22 c-56 24 -123
27 -185 9 -55 -16 -138 -99 -154 -154 -30 -101 -9 -188 63 -259 71 -72 158
-93 259 -63 59 18 138 99 155 160 14 48 11 151 -3 165 -5 5 -49 -35 -100 -88
-50 -53 -102 -99 -115 -102 -13 -3 -38 0 -55 7 -47 20 -69 50 -69 96 0 66 68
122 125 104 19 -6 17 -9 -17 -44 -44 -45 -46 -83 -5 -88 21 -2 59 32 225 198
l200 200 97 0 97 0 91 82 c49 45 90 87 90 94 0 17 -29 32 -110 58 l-65 21 -30
85 c-18 51 -36 86 -45 88 -9 1 -51 -36 -98 -88z"/>
</g>
</svg>
