<?xml version="1.0" standalone="no"?>
<!DOCTYPE svg PUBLIC "-//W3C//DTD SVG 20010904//EN"
 "http://www.w3.org/TR/2001/REC-SVG-20010904/DTD/svg10.dtd">
<svg version="1.0" xmlns="http://www.w3.org/2000/svg"
 width="512.000000pt" height="512.000000pt" viewBox="0 0 512.000000 512.000000"
 preserveAspectRatio="xMidYMid meet">

<g transform="translate(0.000000,512.000000) scale(0.100000,-0.100000)"
fill="#000000" stroke="none">
<path d="M530 4899 c-154 -30 -281 -161 -310 -320 -7 -37 -9 -723 -8 -2055 l3
-1999 23 -55 c33 -81 85 -146 152 -189 110 -71 -58 -66 2180 -66 l2025 0 58
23 c107 44 188 127 234 242 17 43 18 153 18 2080 0 1927 -1 2037 -18 2080 -46
115 -127 198 -234 242 l-58 23 -2010 1 c-1125 1 -2030 -2 -2055 -7z m4072
-231 c22 -13 51 -41 64 -64 l24 -41 0 -2003 0 -2002 -22 -40 c-13 -22 -41 -51
-64 -64 l-41 -24 -2003 0 -2003 0 -41 24 c-23 13 -51 42 -64 64 l-22 40 0
2003 0 2004 24 39 c13 21 41 49 62 62 l39 24 2004 0 2003 0 40 -22z"/>
<path d="M860 4263 c0 -5 297 -430 660 -947 363 -516 660 -942 660 -946 0 -4
-296 -344 -657 -755 -362 -411 -659 -752 -661 -756 -2 -5 61 -9 140 -9 l144 0
45 48 c25 26 288 323 583 659 296 337 541 613 545 613 4 0 215 -297 470 -660
l463 -660 504 0 c277 0 504 3 504 8 0 4 -309 446 -685 982 -377 536 -685 977
-685 981 0 3 284 328 630 722 347 394 630 719 630 722 0 3 -66 5 -147 5 l-148
-1 -549 -625 c-302 -344 -552 -624 -557 -622 -4 2 -204 283 -444 626 l-437
622 -504 0 c-277 0 -504 -3 -504 -7z m1930 -1707 c583 -817 1060 -1487 1060
-1490 0 -4 -102 -6 -228 -6 l-227 0 -1055 1476 c-580 813 -1059 1483 -1063
1490 -7 12 32 14 222 14 l230 0 1061 -1484z"/>
</g>
</svg>
