<?xml version="1.0" standalone="no"?>
<!DOCTYPE svg PUBLIC "-//W3C//DTD SVG 20010904//EN"
 "http://www.w3.org/TR/2001/REC-SVG-20010904/DTD/svg10.dtd">
<svg version="1.0" xmlns="http://www.w3.org/2000/svg"
 width="48.000000pt" height="48.000000pt" viewBox="0 0 48.000000 48.000000"
 preserveAspectRatio="xMidYMid meet">

<g transform="translate(0.000000,48.000000) scale(0.100000,-0.100000)"
fill="#000000" stroke="none">
<path d="M44 408 c-35 -16 -44 -52 -44 -168 0 -119 9 -152 47 -169 32 -15 354
-15 386 0 38 17 47 50 47 169 0 119 -9 152 -47 169 -31 14 -360 14 -389 -1z
m390 -40 c12 -17 16 -49 16 -128 0 -157 10 -150 -210 -150 -220 0 -210 -7
-210 150 0 157 -10 150 210 150 173 0 179 -1 194 -22z"/>
<path d="M190 239 l0 -91 28 18 c85 55 102 67 102 73 0 7 -115 91 -125 91 -3
0 -5 -41 -5 -91z"/>
</g>
</svg>
