<?xml version="1.0" standalone="no"?>
<!DOCTYPE svg PUBLIC "-//W3C//DTD SVG 1.1//EN" "http://www.w3.org/Graphics/SVG/1.1/DTD/svg11.dtd" >
<svg xmlns="http://www.w3.org/2000/svg">
<metadata>Generated by IcoMoon</metadata>
<defs>
<font id="icomoon" horiz-adv-x="1024">
<font-face units-per-em="1024" ascent="960" descent="-64" />
<missing-glyph horiz-adv-x="1024" />
<glyph unicode="&#x20;" horiz-adv-x="512" d="" />
<glyph unicode="&#xe900;" glyph-name="right-arrow" d="M341.6 748.8l-22.4-18.4 148-138.4c81.6-76.8 148.8-140.8 148.8-144s-67.2-67.2-148.8-144l-148-138.4 22.4-18.4 22.4-17.6 95.2 89.6c52.8 48.8 128.8 119.2 169.6 156.8s73.6 69.6 73.6 72c0 2.4-32.8 34.4-73.6 72s-116.8 108-169.6 156.8l-95.2 89.6-22.4-17.6z" />
<glyph unicode="&#xe901;" glyph-name="youtube" d="M93.867 806.4c-74.667-34.133-93.867-110.933-93.867-358.4 0-253.867 19.2-324.267 100.267-360.533 68.267-32 755.2-32 823.467 0 81.067 36.267 100.267 106.667 100.267 360.533s-19.2 324.267-100.267 360.533c-66.133 29.867-768 29.867-829.867-2.133zM925.867 721.067c25.6-36.267 34.133-104.533 34.133-273.067 0-334.933 21.333-320-448-320s-448-14.933-448 320c0 334.933-21.333 320 448 320 369.067 0 381.867-2.133 413.867-46.933zM405.333 445.867v-194.133l59.733 38.4c181.333 117.333 217.6 142.933 217.6 155.733 0 14.933-245.333 194.133-266.667 194.133-6.4 0-10.667-87.467-10.667-194.133z" />
<glyph unicode="&#xe902;" glyph-name="facebook" d="M540.8 780c-68-24-105.6-85.6-114.4-189.6l-4.8-53.6-121.6-4.8-2.4-61.6-2.4-62.4h128.8l1.6-149.6 2.4-150.4 124-4.8 1.6 150.4 2.4 150.4 124 4.8v127.2h-128v48c0 37.6 3.2 51.2 16 64s26.4 16 64 16h48v128h-53.6c-30.4-0.8-68-5.6-85.6-12z" />
<glyph unicode="&#xe903;" glyph-name="linkedin" d="M237.6 734.4c-19.2-15.2-30.4-51.2-22.4-72.8 17.6-46.4 77.6-56.8 109.6-18.4 24.8 28 24 56-0.8 80.8-21.6 22.4-64 27.2-86.4 10.4zM216 364v-212h128v424h-128v-212zM424 364v-212h128v136c0 134.4 0 136.8 20 156 27.2 28 68.8 27.2 91.2-0.8 15.2-20 16.8-32 16.8-156v-135.2h129.6l-3.2 158.4c-2.4 156.8-2.4 159.2-24 191.2-25.6 38.4-64 58.4-112.8 58.4-47.2 0-75.2-11.2-107.2-41.6l-25.6-24.8-5.6 41.6-5.6 40.8h-101.6v-212z" />
<glyph unicode="&#xe904;" glyph-name="right-arrow-1" d="M539 861.2c-15.8-7-23.2-25.6-16.2-41.8 1.6-3.6 71.4-76.4 165.8-172.4l163-166-383.6-1c-383.6-1-383.8-1-389.2-5.2-10.6-7.8-13.8-14.2-13.8-26.8s3.2-19 13.8-26.8l5.4-4.2h855.6l5.4 4.2c13.2 9.8 18 25.2 12.2 38.8-3.4 8-379.8 392.4-391.2 399.4-8 5.2-18.2 5.8-27.2 1.8zM790.8 349.2c-8.8-4-264.6-264.4-268.4-273.2-11-26.6 18-53.8 42.8-39.6 11.4 6.4 262.6 262.4 266.4 271.4 7.8 19.2-5.4 41.6-25.8 43.4-5 0.6-11.4-0.4-15-2z" />
<glyph unicode="&#xe905;" glyph-name="instagram" d="M228 857.6c-76-26.4-126.4-77.6-152-153.6-11.2-32.8-12.8-76-10.4-293.6l2.4-254.4 21.6-40.8c22.4-41.6 68.8-89.6 108-109.6 48.8-25.6 115.2-31.2 342.4-28l224 2.4 53.6 26.4c60 29.6 88 57.6 117.6 121.6l20.8 44v504l-20.8 44c-28.8 61.6-64 99.2-117.6 125.6l-45.6 22.4-252 1.6c-223.2 2.4-256.8 0.8-292-12zM796 764c28-16.8 44.8-36 59.2-64l20.8-39.2v-236.8c0-228-0.8-236.8-17.6-268.8-21.6-40.8-57.6-72-96.8-83.2-19.2-5.6-112.8-8-270.4-6.4l-240.8 2.4-32.8 22.4c-18.4 12-41.6 36.8-51.2 56-17.6 32-18.4 42.4-20.8 264-2.4 196.8-0.8 236.8 10.4 270.4 16 47.2 63.2 91.2 111.2 102.4 18.4 4 136 7.2 261.6 6.4l228.8-1.6 38.4-24zM708.8 694.4c-16.8-23.2-16-40.8 1.6-62.4 28.8-35.2 89.6-13.6 89.6 32 0 44.8-65.6 66.4-91.2 30.4zM424 642.4c-49.6-17.6-113.6-84-130.4-133.6-28-83.2-12-169.6 44.8-233.6 45.6-52 98.4-75.2 169.6-75.2 240 0 317.6 306.4 108.8 430.4-44.8 26.4-137.6 32-192.8 12zM592 548.8c99.2-65.6 76.8-224-37.6-261.6-107.2-35.2-219.2 69.6-188 176 29.6 98.4 142.4 140.8 225.6 85.6z" />
<glyph unicode="&#xe906;" glyph-name="next-right-icon" d="M705.6 670.4c-18.4-18.4-8.8-35.2 68-112l78.4-78.4h-381.6c-336 0-382.4-1.6-393.6-12.8-15.2-14.4-15.2-16-4.8-36 8-14.4 20.8-15.2 394.4-15.2h385.6l-78.4-78.4c-42.4-42.4-77.6-83.2-77.6-90.4 0-15.2 16-31.2 32-31.2s232 216 232 232c0 16-216.8 232-232.8 232-6.4 0-16-4-21.6-9.6z" />
<glyph unicode="&#xe907;" glyph-name="email" d="M0 448v-384h1024v768h-1024v-384zM733.867 593.067c-91.733-98.133-181.333-185.6-198.4-196.267-21.333-12.8-83.2 36.267-224 177.067l-194.133 194.133h785.067l-168.533-174.933zM196.267 315.733l-132.267-134.4v533.333l132.267-134.4 134.4-132.267-134.4-132.267zM960 443.733v-262.4l-266.667 266.667 128 128c70.4 70.4 130.133 128 132.267 128 4.267 0 6.4-117.333 6.4-260.267zM426.667 352c36.267-42.667 125.867-40.533 174.933 4.267 38.4 34.133 46.933 29.867 172.8-96l132.267-132.267h-787.2l125.867 128c70.4 70.4 132.267 128 140.8 128s25.6-14.933 40.533-32z" />
<glyph unicode="&#xe908;" glyph-name="glass" d="M388.267 672c-44.8-19.2-81.067-57.6-102.4-106.667-27.733-66.133-27.733-83.2 2.133-149.333 40.533-100.267 147.2-149.333 245.333-115.2 59.733 21.333 72.533 19.2 130.133-36.267 81.067-76.8 108.8-49.067 32 32-55.467 57.6-57.6 70.4-36.267 130.133 34.133 98.133-14.933 204.8-113.067 245.333-87.467 38.4-70.4 38.4-157.867 0zM565.333 586.667c29.867-27.733 53.333-70.4 53.333-96 0-57.6-91.733-149.333-149.333-149.333s-149.333 91.733-149.333 149.333c0 25.6 23.467 68.267 53.333 96 27.733 29.867 72.533 53.333 96 53.333 25.6 0 68.267-23.467 96-53.333z" />
<glyph unicode="&#xe909;" glyph-name="email-2" d="M38.4 817.067c-4.267-10.667-4.267-183.467 0-386.133l6.4-366.933h934.4l6.4 369.067c4.267 200.533 4.267 373.333 0 384-8.533 19.2-938.667 19.2-947.2 0zM757.333 669.867c-57.6-53.333-138.667-121.6-174.933-151.467l-70.4-53.333-68.267 53.333c-38.4 29.867-117.333 98.133-177.067 151.467l-106.667 96h704l-106.667-96zM290.133 565.333c102.4-87.467 202.667-160 221.867-160 21.333 0 121.6 72.533 226.133 162.133l189.867 162.133 6.4-228.267c2.133-125.867 2.133-234.667-4.267-238.933-4.267-6.4-59.733 23.467-121.6 66.133-72.533 49.067-121.6 68.267-134.4 55.467-10.667-10.667-17.067-23.467-10.667-27.733 4.267-4.267 68.267-49.067 142.933-98.133 72.533-49.067 132.267-98.133 132.267-108.8 0-12.8-166.4-21.333-426.667-21.333s-426.667 8.533-426.667 21.333c0 10.667 59.733 59.733 134.4 108.8 72.533 49.067 136.533 93.867 140.8 98.133 6.4 4.267 0 17.067-10.667 27.733-12.8 12.8-59.733-6.4-130.133-53.333-61.867-40.533-117.333-74.667-123.733-74.667s-10.667 106.667-10.667 234.667c0 130.133 4.267 234.667 8.533 234.667 6.4 0 93.867-72.533 196.267-160z" />
<glyph unicode="&#xe90a;" glyph-name="language" d="M377.6 883.2c-206.933-72.533-313.6-221.867-313.6-439.467 0-123.733 8.533-153.6 70.4-243.2 185.6-277.333 569.6-277.333 757.333 0 59.733 91.733 68.267 119.467 68.267 247.467s-8.533 155.733-68.267 247.467c-117.333 172.8-334.933 251.733-514.133 187.733zM362.667 731.733c-34.133-93.867-44.8-102.4-115.2-108.8-85.333-8.533-93.867 6.4-38.4 74.667 27.733 34.133 166.4 134.4 189.867 134.4 0 0-14.933-44.8-36.267-100.267zM582.4 757.333c57.6-123.733 51.2-138.667-70.4-138.667s-128 14.933-70.4 138.667c44.8 96 96 96 140.8 0zM802.133 710.4c70.4-76.8 64-96-25.6-87.467-70.4 6.4-81.067 14.933-115.2 106.667l-38.4 100.267 64-32c36.267-19.2 87.467-57.6 115.2-87.467zM320 435.2v-117.333l-181.333 12.8-6.4 113.067-6.4 110.933h194.133v-119.467zM640 437.333v-117.333h-256v234.667h256v-117.333zM891.733 443.733l-6.4-113.067-181.333-12.8v236.8h194.133l-6.4-110.933zM364.8 160l34.133-96-81.067 46.933c-46.933 25.6-98.133 68.267-115.2 96-32 49.067-32 49.067 46.933 49.067 76.8 0 83.2-4.267 115.2-96zM618.667 234.667c0-49.067-74.667-170.667-106.667-170.667s-106.667 121.6-106.667 170.667c0 12.8 49.067 21.333 106.667 21.333 59.733 0 106.667-8.533 106.667-21.333zM821.333 206.933c-17.067-27.733-68.267-70.4-115.2-96l-81.067-46.933 34.133 96c32 91.733 38.4 96 115.2 96 78.933 0 78.933 0 46.933-49.067z" />
<glyph unicode="&#xe90b;" glyph-name="phone" d="M153.6 443.733l6.4-347.733h704l6.4 347.733 4.267 345.6h-725.333l4.267-345.6zM789.333 437.333v-288h-554.667v576h554.667v-288zM324.267 635.733c-42.667-42.667-29.867-113.067 38.4-204.8 121.6-168.533 292.267-241.067 349.867-147.2 51.2 81.067-64 155.733-136.533 89.6-38.4-36.267-44.8-34.133-108.8 29.867-61.867 64-64 70.4-32 106.667 57.6 64 29.867 151.467-51.2 151.467-19.2 0-44.8-10.667-59.733-25.6z" />
<glyph unicode="&#xe90c;" glyph-name="twitter" d="M106 915.8c-30.8-6-56.2-32.2-62-64-1.4-7.4-1.8-144.6-1.6-411l0.6-399.8 4.6-11c6.6-16.2 17-29.2 30.4-37.8 22-14.2-11.6-13.2 436-13.2h405l11.6 4.6c21.4 8.8 37.6 25.4 46.8 48.4 3.4 8.6 3.6 30.6 3.6 416s-0.2 407.4-3.6 416c-9.2 23-25.4 39.6-46.8 48.4l-11.6 4.6-402 0.2c-225 0.2-406-0.4-411-1.4zM920.4 869.6c4.4-2.6 10.2-8.2 12.8-12.8l4.8-8.2v-801l-4.4-8c-2.6-4.4-8.2-10.2-12.8-12.8l-8.2-4.8h-801.2l-8.2 4.8c-4.6 2.6-10.2 8.4-12.8 12.8l-4.4 8v801.4l4.8 7.8c2.6 4.2 8.2 9.8 12.4 12.4l7.8 4.8h801.4l8-4.4zM172 788.6c0-1 59.4-86 132-189.4 72.6-103.2 132-188.4 132-189.2s-59.2-68.8-131.4-151c-72.4-82.2-131.8-150.4-132.2-151.2-0.4-1 12.2-1.8 28-1.8h28.8l9 9.6c5 5.2 57.6 64.6 116.6 131.8 59.2 67.4 108.2 122.6 109 122.6s43-59.4 94-132l92.6-132h100.8c55.4 0 100.8 0.6 100.8 1.6 0 0.8-61.8 89.2-137 196.4-75.4 107.2-137 195.4-137 196.2 0 0.6 56.8 65.6 126 144.4 69.4 78.8 126 143.8 126 144.4s-13.2 1-29.4 1l-29.6-0.2-109.8-125c-60.4-68.8-110.4-124.8-111.4-124.4-0.8 0.4-40.8 56.6-88.8 125.2l-87.4 124.4h-100.8c-55.4 0-100.8-0.6-100.8-1.4zM558 447.2c116.6-163.4 212-297.4 212-298 0-0.8-20.4-1.2-45.6-1.2h-45.4l-211 295.2c-116 162.6-211.8 296.6-212.6 298-1.4 2.4 6.4 2.8 44.4 2.8h46l212.2-296.8z" />
<glyph unicode="&#xe90d;" glyph-name="linkedin-2" d="M161 846.2c-18-4.4-34.4-18-43-35.2l-5-10v-706l5-10c6.2-12.8 18.2-24.8 31-31l10-5h706l10 4.8c12.6 6.4 24.8 18.6 31.2 31.2l4.8 10v706l-4.8 10c-6.4 12.6-18.6 24.8-31.2 31.2l-10 4.8-349 0.4c-192 0-351.6-0.4-355-1.2zM856.4 792.6c3.4-3 3.6-16.4 3.6-344.2 0-314.6-0.2-341.4-3.4-344.8-3-3.4-16.4-3.6-344.2-3.6-314.6 0-341.4 0.2-344.8 3.4-3.4 3-3.6 16.4-3.6 344.2 0 314.6 0.2 341.4 3.4 344.8 3 3.4 16.4 3.6 344.2 3.6 314.6 0 341.4-0.2 344.8-3.4zM327 669.2c-17.6-7.6-27.8-23.4-28-43.2 0-10.6 1-14.6 5.6-22.4 8.8-15.2 23-23.6 40-23.6 27 0 46.2 19 46.2 46 0 19.8-10 35.8-27.2 42.8-9 3.8-28.4 4-36.6 0.4zM298 390v-166h94v332h-94v-166zM440 390v-166h96v99.6c0 63.8 0.8 102.2 2.2 107 5.4 19.6 24.8 30.6 51 29 19.4-1.2 28.2-7 36.2-23l5.6-11.6 0.6-101.4 0.6-101.6h94l-0.6 120.6c-0.8 115.6-1 121-5 135.6-11.8 42-34.2 65.2-72.6 75-16 4-55.6 3-71.4-2s-28.8-15-35-27.2l-5.6-10.4v42.4h-96v-166z" />
<glyph unicode="&#xe90e;" glyph-name="target-center" d="M745.6 888l-65.6-72.8v-77.6c0-76.8-0.8-79.2-23.2-100.8l-24-23.2-37.6 25.6c-114.4 76-264 83.2-388.8 20-60-30.4-137.6-111.2-166.4-172.8-57.6-124-49.6-260.8 23.2-375.2l22.4-36-30.4-38.4c-33.6-41.6-39.2-68-18.4-88 24.8-25.6 58.4-8.8 96.8 48.8l12 17.6 48.8-27.2c129.6-71.2 275.2-67.2 399.2 11.2l36.8 23.2 33.6-39.2c38.4-44.8 64.8-56 88-35.2 24 21.6 20 39.2-22.4 89.6l-39.2 46.4 26.4 48c46.4 84.8 62.4 182.4 42.4 268-8.8 40.8-46.4 128-54.4 128-3.2 0-23.2-17.6-44.8-40l-38.4-39.2 12.8-41.6c16.8-51.2 17.6-128.8 1.6-176-40.8-119.2-176.8-199.2-299.2-176-189.6 37.6-281.6 252-175.2 412 30.4 46.4 84 88 137.6 105.6 56.8 19.2 148 12 203.2-16 22.4-11.2 41.6-24 41.6-27.2 0-4-8.8-15.2-20-25.6l-19.2-18.4-40 17.6c-44.8 19.2-98.4 21.6-148 7.2-44-12.8-110.4-79.2-123.2-123.2-24-80.8-7.2-150.4 50.4-207.2 56.8-57.6 126.4-74.4 207.2-50.4 47.2 14.4 110.4 79.2 124 128 11.2 38.4 8.8 120.8-2.4 132-4 4-39.2-28-80-70.4-40-42.4-81.6-79.2-92-81.6s-30.4 0-44 5.6c-37.6 16-55.2 40-55.2 76.8 0 52.8 54.4 97.6 100 83.2 15.2-4.8 13.6-7.2-13.6-35.2-35.2-36-36.8-66.4-4-70.4 16.8-1.6 47.2 25.6 180 158.4l160 160h155.2l72.8 65.6c39.2 36 72 69.6 72 75.2 0 13.6-23.2 25.6-88 46.4l-52 16.8-24 68c-14.4 40.8-28.8 68.8-36 70.4-7.2 0.8-40.8-28.8-78.4-70.4z" />
<glyph unicode="&#xe90f;" glyph-name="business-work" d="M608.8 852c-64.8-20-120-92.8-120.8-157.6v-30.4h-108.8c-124.8 0-158.4-8-202.4-45.6-61.6-52.8-64.8-66.4-64.8-312.8v-217.6h-38.4c-47.2 0-73.6-16-60.8-37.6 8.8-13.6 35.2-14.4 499.2-14.4s490.4 0.8 499.2 14.4c12.8 21.6-13.6 37.6-60.8 37.6h-38.4v383.2c0 341.6-1.6 384-12.8 388-24.8 9.6-254.4 4-290.4-7.2zM864 448v-360h-96v63.2c0 77.6-8 88.8-64 88.8-64 0-64 0-64-80.8v-71.2h-104v307.2c0 198.4 3.2 316 8.8 330.4 9.6 26.4 44.8 65.6 67.2 74.4 8.8 4 68.8 7.2 134.4 7.2l117.6 0.8v-360zM488 352v-264h-328v208c0 232.8 2.4 246.4 51.2 284.8 39.2 31.2 48.8 33.6 171.2 34.4l105.6 0.8v-264zM712 136c0-37.6-2.4-48-12-48s-12 10.4-12 48c0 37.6 2.4 48 12 48s12-10.4 12-48zM572 663.2c-3.2-8.8-2.4-20 1.6-24s62.4-6.4 131.2-5.6l123.2 2.4v40l-125.6 2.4c-121.6 1.6-125.6 1.6-130.4-15.2zM577.6 534.4c-14.4-14.4-12-28.8 5.6-38.4 24.8-12.8 218.4-10.4 237.6 3.2 12 9.6 13.6 14.4 6.4 26.4-8 12.8-23.2 14.4-124 16.8-83.2 1.6-118.4-0.8-125.6-8zM571.2 388c-3.2-6.4-0.8-17.6 4.8-24 14.4-17.6 233.6-17.6 248 0 5.6 6.4 8 17.6 4.8 24-6.4 17.6-251.2 17.6-257.6 0zM196.8 516c-2.4-7.2-4.8-32.8-4.8-56 0-49.6 10.4-60 61.6-60 50.4 0 60 12 56.8 72l-2.4 52-52.8 2.4c-43.2 1.6-54.4 0-58.4-10.4zM264 468c0-6.4-5.6-12-12-12s-12 5.6-12 12c0 6.4 5.6 12 12 12s12-5.6 12-12zM341.6 522.4c-3.2-2.4-5.6-28-5.6-55.2 0-41.6 2.4-52 15.2-59.2 24-12 77.6-9.6 92 4.8 15.2 15.2 17.6 91.2 3.2 105.6-10.4 10.4-96 13.6-104.8 4zM400 468c0-6.4-3.2-12-8-12-4 0-8 5.6-8 12s4 12 8 12c4.8 0 8-5.6 8-12zM201.6 366.4c-12.8-12.8-12.8-96 0-108.8 9.6-9.6 76-12.8 97.6-4.8 18.4 7.2 18.4 111.2 0 118.4-21.6 8-88 4.8-97.6-4.8zM264 312c0-8.8-3.2-16-7.2-16-11.2 0-18.4 14.4-12.8 24 8 13.6 20 8.8 20-8zM339.2 364.8c-2.4-5.6-3.2-33.6-1.6-61.6l2.4-51.2 46.4-2.4c28-1.6 51.2 1.6 58.4 7.2 14.4 11.2 15.2 96 1.6 109.6s-101.6 12.8-107.2-1.6zM400 312c0-8.8-3.2-16-8-16-4 0-8 7.2-8 16s4 16 8 16c4.8 0 8-7.2 8-16z" />
<glyph unicode="&#xe910;" glyph-name="basket" d="M91.4 835.2c-11-4-20.6-12.2-26.8-22.8-4.8-8.2-5.6-11.4-5.6-25.4 0-17.8 2.6-24.4 13.8-35.6 11.6-11.8 19.4-14.2 47.2-15.4l24.8-1 40.4-187c22.4-102.8 42-192.6 43.8-199.6 11.4-41.8 39.4-75.8 78-94.4 37.6-18 21.2-17 262-17 195.2 0 213 0.2 225.6 3.4 31.8 8.2 62.8 26.4 82.6 48.4 23.2 25.8 33.4 56.2 52.6 158.2 5.6 29.8 14.8 75.6 20.2 102 15.2 71.8 16.6 80.4 15.6 97-1.4 24-10.8 37.8-30.6 45.2-9.6 3.6-21.4 3.8-273 4.4-272.4 0.6-280.4 0.4-296-7.6-8.8-4.4-19.4-16-23.2-25.2-4-9.6-3.4-30.2 1-39.8 4.8-10.6 15-20.6 26.2-25.8 9-4.2 10.4-4.2 246.6-4.8 224.4-0.4 237.6-0.6 236.6-4-0.6-1.8-10-51-21.2-109.4-12.8-67.2-21.6-109-24.2-114.4-4.6-9.4-12-16.6-24.6-23.2l-8.2-4.4-199.8-0.6c-219.4-0.6-211.6-1-228.6 11.4-16.6 12-15.2 7-60.8 217.6-23 106.4-42.8 196.8-44 200.6-10.6 33-39.2 60.2-72.8 69-15.4 4-66.6 4-77.6 0.2zM326 209.8c-16-2.8-30.8-11-43-24.2-14.6-15.6-19.8-29.2-19.8-51.8 0-16 0.6-18.6 7.4-32.4 8.6-17.2 19.6-28.2 37.2-36.8 10-5 13.4-5.6 31.2-5.6 18.6 0 21 0.4 33.4 6.6 16.6 8 31.6 23.8 37.8 40 7 17.2 6.6 43.2-0.6 59-15.6 33.6-48 51-83.6 45.2zM787.2 210c-24.2-4.2-46.2-21.2-57-44-4.6-9.6-5.2-13.6-5.2-32 0-18.8 0.6-22.2 5.4-32.2 7.6-15.2 21.8-29.2 37.6-36.6 11.6-5.6 15-6.2 32-6.2s20.4 0.6 32 6.2c15.8 7.4 30 21.4 37.6 36.6 4.8 10 5.4 13.4 5.4 32.2 0 17.6-0.8 22.6-4.6 30.8-14.8 32.4-49 50.8-83.2 45.2z" />
<glyph unicode="&#xe911;" glyph-name="icon" d="M48.8 819.2c-18.6-4.6-35-18.4-43.2-36.2-3.6-8.2-4.6-14.4-5.2-34.6-0.8-23.4-0.6-25 4.6-35.6 8.6-17.6 11.4-18.8 92.8-39.2l72-18.2 1.2-338.4 5.2-11c7.4-16 16.2-25 31.4-32.4l13.4-6.6 390-0.6c279.4-0.4 392.2 0 397.6 1.6 8.2 2.4 15.4 11.4 15.4 19.6 0 13.8-11.8 22.4-30.8 22.4h-11l-0.6 102.6-0.6 102.4-5.2 11c-9.8 20.8-22.6 31.8-43.6 37.2-10 2.4-31.8 2.8-148.6 2.2-75-0.2-138.6-1.2-140.8-2.2-3.8-1.4-5.2 0-11 10.8-7 13.4-15.6 21.4-29.8 28.4l-9 4.6h-122c-115.2 0-122.6-0.2-131.8-3.8-19-7.2-34.8-26.2-39-46.8-1.4-7-2.2-50.6-2.2-128.4v-118h-72.4l-11.6 11.6v228.2c0 160.6-0.6 231-2.2 238.4-3.2 14.8-16.8 28.4-31.6 31.6-14.6 3-118 2.6-131.4-0.6zM170 739c0-21.4-0.6-39-1.4-39-1 0-29.4 7.2-63.6 15.6l-62 15.6v17.6c0 17.2 0 17.6 6.6 23.4l6.4 5.8h114v-39zM585 562.8c12.8-6 12.6-3.2 11.4-134.2l-1-118.6h-253.4v120.8c0 120.2 0 120.6 4.2 126 2.4 3 6.2 6.4 8.6 7.2 2.2 1 53.6 1.8 113.8 1.8 96 0.2 110.6-0.2 116.4-3zM932.2 516.2l5.8-5.8v-200.4h-298v98.6c0.2 105.4 0.2 105 10.2 110.6 3.8 2.2 31.6 2.6 140.4 2.8h135.8l5.8-5.8zM475.8 388.2c-9.4-9.6-7.4-26 4.2-32.8 8.2-5 55.8-5 64 0 11.6 6.8 13.6 23.2 4.2 32.8l-5.8 5.8h-60.8l-5.8-5.8zM819.4 390c-7.6-6-10.4-16-6.6-24.6 4.8-11.8 11.2-13.8 43.2-13 26 0.6 28 0.8 32.8 5.4 10.2 9.6 8 28.4-4 34-3 1.2-16.6 2.2-32.6 2.2-24.8 0-28.2-0.4-32.8-4zM517.8 819.4c-20.8-5.8-36.6-19.8-44-39.4-3.4-9-3.8-15.8-3.8-62.8 0-49.8 0.2-53 4-57.8 6-7.6 16-10.4 24.6-6.6 12.6 5.2 13.4 9.2 13.4 62 0 32.2 0.8 48.6 2.4 52.2 5 11 3.8 11 125.4 11 75.4 0 113.6-0.8 116.8-2.2 10.2-4.6 10.4-5.6 11.4-83.2l1-72.2 4.8-5.2c9.6-10.2 28.4-8 34 4 1.4 3.4 2.2 28.4 2.2 77.8 0 68.6-0.2 73.4-4.2 83.8-5.2 14-18.4 27.8-33.4 34.8l-11.4 5.4-117 0.4c-88.6 0.4-119.2-0.2-126.2-2zM241.4 244c-44.4-7.8-76.6-52.4-69.6-96.2 7.6-46.6 51.4-79.2 96.4-72 56.4 9.2 88.4 68.2 64.8 119.6-15.8 34.8-54.2 55.2-91.6 48.6zM278.8 196c4-2.8 9.8-8.6 12.8-12.8 4.8-7 5.4-9.8 5.4-23.2s-0.6-16.2-5.4-23.2c-3-4.2-8.8-10-13-12.8-6.2-4.2-9.6-5-22.6-5s-16.4 0.8-22.6 5c-4.2 2.8-10 8.6-13 12.8-4.8 7-5.4 9.8-5.4 23.4 0 14 0.6 16.2 6 24 9 12.8 20.8 18.2 37.2 17.4 10-0.6 15-2 20.6-5.6zM920.8 243c-16.4-3.6-27.4-9.4-40.2-21.4-18-17.2-26.6-37-26.6-61.6 0-24.8 8.6-44.4 27-61.8 33.6-31.8 84.4-31 117.6 2 33.6 33.6 33.6 86 0 119.6-13 12.8-27.8 20.8-45.4 24-14.4 2.6-16.8 2.6-32.4-0.8zM955.6 199c15.6-6.6 25.2-21.2 25.2-39 0.2-36.2-42.8-55.4-70.2-31.4-23 20.2-17.8 55.2 10.4 70 7.8 4.2 25 4.2 34.6 0.4z" />
<glyph unicode="&#xe912;" glyph-name="handshake" d="M387.2 760.8c-45.6-11.2-99.2-41.6-143.2-82.4-46.4-42.4-60-71.2-44-90.4 18.4-22.4 48-13.6 84.8 24.8 40 40.8 106.4 75.2 145.6 75.2h27.2l-57.6-63.2c-60.8-68-75.2-98.4-64-138.4 21.6-74.4 108-99.2 168-48.8 16.8 13.6 27.2 17.6 34.4 12.8 4.8-4 49.6-39.2 97.6-78.4 48.8-39.2 89.6-72 90.4-72.8 6.4-4-8-32-26.4-53.6l-20-22.4-23.2 16-23.2 16.8-17.6-24c-18.4-26.4-40-31.2-56-11.2-24 28-40 29.6-64.8 6.4-40-37.6-60-31.2-145.6 47.2l-76 69.6h-121.6v304h-152v-408h58.4c37.6 0.8 63.2 4.8 72.8 12 10.4 8 34.4 12 66.4 12h50.4l61.6-56.8c74.4-68 103.2-82.4 153.6-76 47.2 6.4 68.8 6.4 109.6 0 21.6-3.2 40-0.8 52 5.6 10.4 5.6 35.2 10.4 54.4 11.2 32 0 38.4 4 73.6 43.2 48.8 54.4 60 80.8 50.4 119.2-5.6 24-24 43.2-107.2 111.2-55.2 44.8-99.2 86.4-98.4 92s4 20 7.2 31.2c4.8 22.4-12.8 47.2-34.4 47.2-6.4 0-36-23.2-65.6-52-53.6-52-82.4-64-92-39.2-2.4 7.2-4.8 14.4-4.8 16.8s36.8 41.6 81.6 87.2c68 69.6 85.6 83.2 105.6 83.2 37.6 0 100.8-33.6 142.4-74.4 36-36.8 38.4-37.6 85.6-37.6h48.8v-149.6c0-83.2 3.2-154.4 6.4-159.2 12-18.4 42.4-27.2 92.8-27.2h52.8v405.6l-219.2 11.2-35.2 32c-68.8 64-159.2 91.2-222.4 67.2-32.8-12.8-38.4-12.8-68-0.8-33.6 13.6-52 14.4-92 5.6zM95.2 332.8c12.8-16 2.4-36.8-19.2-36.8s-28.8 13.6-18.4 34.4c8 16 24.8 17.6 37.6 2.4zM966.4 330.4c10.4-20.8 3.2-34.4-18.4-34.4s-32 20.8-19.2 36.8c12.8 15.2 29.6 13.6 37.6-2.4z" />
<glyph unicode="&#xe913;" glyph-name="cryptocurrency" d="M312 908c-8.8-10.4-7.2-16 11.2-35.2l20.8-21.6-48.8-9.6c-120.8-22.4-183.2-105.6-183.2-245.6 0-54.4 5.6-68 28-68 24 0 28 12.8 28 86.4 0 106.4 48 167.2 137.6 176l41.6 4-20.8-25.6c-24-28-21.6-48.8 5.6-48.8 11.2 0 33.6 16.8 62.4 47.2 25.6 26.4 45.6 49.6 45.6 52.8 0 12-92 100-104 100-8 0-18.4-5.6-24-12zM583.2 861.6c-85.6-24.8-161.6-92-191.2-172-20-53.6-18.4-69.6 8-69.6 16.8 0 22.4 6.4 35.2 42.4 19.2 54.4 66.4 107.2 118.4 132.8 56.8 28 136.8 28.8 194.4 1.6 49.6-22.4 100.8-77.6 120-127.2 20.8-54.4 13.6-143.2-15.2-192.8-27.2-46.4-72.8-84.8-126.4-104.8-35.2-13.6-42.4-20-42.4-36 0-26.4 16-28 70.4-8 62.4 23.2 119.2 76.8 151.2 142.4 23.2 47.2 26.4 60.8 26.4 117.6-0.8 52.8-4.8 72.8-23.2 112.8-56 123.2-202.4 195.2-325.6 160.8zM320 583.2c-88.8-17.6-166.4-79.2-206.4-165.6-30.4-65.6-30.4-153.6 1.6-222.4 28-61.6 82.4-116 144.8-144.8 40-18.4 59.2-21.6 112-22.4 56.8 0 70.4 3.2 117.6 26.4 135.2 66.4 194.4 216.8 141.6 357.6-44.8 118.4-184.8 196-311.2 171.2zM473.6 512.8c164-83.2 168.8-312 8.8-406.4-52.8-30.4-142.4-35.2-200.8-10.4-50.4 21.6-105.6 79.2-125.6 130.4-20.8 54.4-13.6 143.2 14.4 192 26.4 44.8 77.6 88.8 120.8 104.8 48.8 18.4 135.2 12.8 182.4-10.4zM216 441.6c0-8.8 96.8-102.4 117.6-112.8 22.4-11.2 54.4-11.2 76.8 0 25.6 12.8 109.6 96.8 109.6 108.8 0 6.4-10.4 10.4-25.6 10.4-20 0-34.4-8.8-62.4-35.2-54.4-52.8-64-53.6-114.4-5.6-36 33.6-48 40.8-72 40.8-16.8 0-29.6-3.2-29.6-6.4zM332 284.8c-12.8-5.6-45.6-33.6-72-61.6l-48-51.2 31.2-2.4c28-2.4 35.2 1.6 68 33.6 50.4 49.6 72.8 49.6 120.8 0.8 28-28 40.8-36 61.6-36 14.4 0 26.4 3.2 26.4 6.4 0 14.4-84.8 100.8-109.6 110.4-32 13.6-47.2 13.6-78.4 0zM860.8 355.2c-2.4-7.2-4.8-40-4.8-73.6 0-106.4-48-167.2-137.6-176l-41.6-4 20.8 25.6c24 28 21.6 48.8-5.6 48.8-11.2 0-33.6-16.8-62.4-47.2-25.6-26.4-45.6-49.6-45.6-52.8 0-12 92-100 104-100 8 0 18.4 5.6 24 12 8.8 10.4 7.2 16-11.2 35.2l-20.8 21.6 48.8 9.6c120.8 22.4 183.2 105.6 183.2 245.6 0 23.2-2.4 48-4.8 55.2-6.4 16.8-40 16.8-46.4 0z" />
<glyph unicode="&#xe914;" glyph-name="handcuff_accessory" d="M253.6 880c-47.2-12-86.4-36-123.2-73.6-111.2-114.4-92-301.6 39.2-386.4l37.6-24v-73.6l0.8-74.4h61.6l4.8-55.2c5.6-65.6 26.4-110.4 67.2-144 42.4-34.4 90.4-43.2 234.4-39.2 110.4 2.4 128 4.8 158.4 20.8 39.2 20.8 79.2 72 86.4 110.4 3.2 19.2 9.6 27.2 22.4 28.8 15.2 2.4 16.8 8 19.2 54.4 2.4 50.4 3.2 52.8 34.4 74.4 72 49.6 90.4 156.8 41.6 236-42.4 69.6-140.8 100.8-216.8 69.6-72.8-31.2-121.6-115.2-110.4-192 6.4-42.4 44-101.6 76-120.8 22.4-13.6 24-17.6 26.4-66.4 2.4-48 4-52.8 20.8-55.2 22.4-3.2 22.4-8.8-0.8-42.4-25.6-37.6-56.8-46.4-177.6-46.4-121.6-0.8-155.2 6.4-183.2 40-17.6 20.8-20.8 32-20.8 76v51.2h64l0.8 74.4v73.6l37.6 24c133.6 85.6 151.2 276.8 35.2 390.4-20.8 20-54.4 44-75.2 53.6-43.2 19.2-118.4 26.4-160.8 16zM360.8 791.2c67.2-20.8 119.2-90.4 119.2-160 0-50.4-32-111.2-73.6-140-29.6-20.8-40-23.2-94.4-23.2s-64.8 2.4-94.4 23.2c-89.6 61.6-96.8 200-14.4 265.6 50.4 40.8 100 51.2 157.6 34.4zM849.6 539.2c31.2-16 54.4-59.2 54.4-100.8 0-121.6-163.2-161.6-217.6-53.6-8 15.2-14.4 40-14.4 55.2 0 28.8 24 76 47.2 93.6 33.6 26.4 85.6 28.8 130.4 5.6z" />
<glyph unicode="&#xe915;" glyph-name="pedestrian" d="M172 916.8c-80.8-35.2-100-142.4-36.8-205.6 52-52 125.6-52 177.6 0 99.2 99.2-12 261.6-140.8 205.6zM268 844c40-39.2 12-108-44-108-32.8 0-64 31.2-64 64s31.2 64 64 64c15.2 0 32-7.2 44-20zM748 916.8c-80.8-35.2-100-142.4-36.8-205.6 52-52 125.6-52 177.6 0 99.2 99.2-12 261.6-140.8 205.6zM844 844c12.8-12 20-28.8 20-44s-7.2-32-20-44c-12-12.8-28.8-20-44-20s-32 7.2-44 20c-12.8 12-20 28.8-20 44s7.2 32 20 44c12 12.8 28.8 20 44 20s32-7.2 44-20zM537.6 688c-54.4-33.6-72.8-99.2-41.6-150.4 32.8-52.8 90.4-70.4 143.2-43.2 80.8 40.8 84.8 146.4 7.2 193.6-14.4 8.8-39.2 16-54.4 16s-40-7.2-54.4-16zM624 624c8.8-8.8 16-23.2 16-32s-7.2-23.2-16-32c-8.8-8.8-23.2-16-32-16s-23.2 7.2-32 16c-8.8 8.8-16 23.2-16 32s7.2 23.2 16 32c8.8 8.8 23.2 16 32 16s23.2-7.2 32-16zM92 632c-8.8-3.2-24.8-16-36-28-19.2-20.8-20-25.6-22.4-144.8-3.2-136 2.4-157.6 42.4-168l20-4.8v-124c0-120 0.8-124 20-142.4 18.4-19.2 24.8-20 108-20s89.6 0.8 108 20c19.2 19.2 20 22.4 20 144v124h-64v-224h-128v288h-64v103.2c0 77.6 2.4 104.8 11.2 112 7.2 6.4 45.6 8.8 117.6 7.2l105.6-2.4 32-93.6 31.2-94.4h145.6c102.4 0 148.8-3.2 155.2-9.6s9.6-36 9.6-80v-70.4h-64v-160h-96v160h-64v-92c0-88 0.8-93.6 20-112 17.6-18.4 25.6-20 92-20s74.4 1.6 92 20c17.6 16.8 20 26.4 20 78.4 0 56.8 0.8 60 20 64.8 37.6 9.6 45.6 34.4 42.4 136-2.4 92-2.4 92.8-28.8 118.4l-25.6 26.4-274.4 8-27.2 80c-15.2 47.2-33.6 85.6-43.2 94.4-14.4 12-34.4 13.6-138.4 12.8-66.4 0-128-3.2-136.8-7.2zM768 608.8v-32.8h70.4c44 0 73.6-3.2 80-9.6s9.6-43.2 9.6-112v-102.4h-96v-352h64v288h28c20 0 35.2 6.4 48.8 20 20 20 20 20.8 17.6 148l-2.4 128-26.4 25.6c-25.6 25.6-27.2 26.4-109.6 28.8l-84 3.2v-32.8z" />
</font>
</defs>
</svg>
